<svg xmlns="http://www.w3.org/2000/svg" xmlns:xlink="http://www.w3.org/1999/xlink" width="127" zoomAndPan="magnify"
  viewBox="152.589844 83.324219 126.6875 146.929687" height="147" preserveAspectRatio="xMidYMid meet" version="1.0">
  <defs>
    <clipPath id="f2cb56015a">
      <path
        d="M 152.589844 83.324219 L 279.277344 83.324219 L 279.277344 230.253906 L 152.589844 230.253906 Z M 152.589844 83.324219 "
        clip-rule="nonzero" />
    </clipPath>
  </defs>
  <g clip-path="url(#f2cb56015a)">
    <path fill="#000000"
      d="M 229.109375 116.113281 C 230.042969 111.265625 231.011719 106.203125 232.109375 103.207031 C 233.289062 99.976562 234.734375 98.832031 236.59375 98.125 C 237.707031 97.699219 239.09375 97.363281 240.511719 97.535156 C 241.113281 97.605469 241.722656 97.765625 242.316406 98.054688 C 244.320312 99.023438 245.707031 101.1875 246.519531 103.996094 C 247.347656 106.867188 247.652344 110.644531 247.324219 117.304688 C 247.058594 122.773438 246.355469 130.289062 245.632812 138.074219 C 245.472656 139.777344 245.3125 141.496094 245.15625 143.210938 C 244.273438 152.824219 243.492188 162.214844 243.671875 167.992188 C 243.863281 174.039062 245.101562 175.238281 245.4375 175.382812 L 245.4375 175.386719 C 245.46875 175.398438 245.492188 175.402344 245.503906 175.40625 C 245.707031 175.429688 246.558594 175.164062 248.597656 172.574219 C 249.222656 171.78125 249.910156 170.84375 250.667969 169.800781 C 251.542969 168.605469 252.503906 167.289062 253.527344 165.988281 C 254.589844 164.644531 255.734375 163.292969 256.945312 162.089844 C 260.335938 158.722656 264.160156 156.582031 267.1875 155.617188 C 268.898438 155.074219 270.421875 154.886719 271.855469 155.058594 C 272.992188 155.191406 274.007812 155.542969 274.964844 156.042969 C 277.0625 157.132812 279.480469 159.285156 279.238281 162.832031 C 279.019531 166.027344 276.570312 169.972656 273.226562 173.972656 C 272.175781 175.230469 271.011719 176.519531 269.828125 177.835938 C 268.535156 179.265625 267.214844 180.730469 265.933594 182.265625 C 264.546875 183.921875 263.21875 185.644531 262.050781 187.453125 C 260.183594 190.347656 258.6875 193.515625 257.144531 196.796875 C 256.007812 199.210938 254.839844 201.6875 253.503906 204.058594 C 250.363281 209.636719 246.320312 214.566406 242.496094 218.484375 C 238.671875 222.398438 234.929688 225.441406 230.335938 227.257812 C 225.792969 229.058594 220.535156 229.601562 215.382812 230 C 211.214844 230.324219 206.839844 230.574219 202.59375 230.066406 L 202.644531 230.074219 L 202.640625 230.074219 L 202.59375 230.066406 C 201.5625 229.945312 200.539062 229.777344 199.519531 229.554688 C 194.304688 228.417969 189.464844 225.863281 185.773438 222.578125 C 182.0625 219.277344 179.566406 215.285156 177.390625 210.691406 C 175.214844 206.101562 173.320312 200.824219 171.429688 194.402344 C 170.089844 189.859375 168.746094 184.726562 167.535156 180.105469 C 167.039062 178.199219 166.5625 176.382812 166.117188 174.722656 C 164.59375 169.042969 163.433594 165.203125 161.53125 159.621094 C 159.96875 155.03125 157.910156 149.269531 156.25 144.625 C 155.882812 143.601562 155.539062 142.640625 155.222656 141.75 C 153.511719 136.949219 152.515625 134.15625 152.59375 131.480469 C 152.671875 128.757812 153.828125 126.25 155.496094 124.445312 C 156.609375 123.242188 158.28125 122.011719 160.40625 122.261719 C 161.328125 122.371094 162.21875 122.753906 163.066406 123.378906 C 165.582031 125.238281 168.257812 129.769531 169.71875 132.296875 C 171.289062 135.019531 171.859375 136.195312 173.160156 139.890625 C 173.335938 140.378906 173.519531 140.910156 173.714844 141.472656 C 173.9375 142.117188 174.175781 142.800781 174.425781 143.511719 C 175.605469 146.859375 177.042969 150.714844 178.535156 153.527344 C 180.390625 157.023438 181.996094 158.269531 182.4375 158.335938 C 182.4375 158.335938 182.4375 158.335938 182.433594 158.335938 L 182.4375 158.335938 C 182.410156 158.332031 182.304688 158.332031 182.179688 158.398438 C 182.109375 158.4375 182.078125 158.476562 182.078125 158.476562 C 182.46875 158.003906 182.71875 155.6875 182.269531 151.917969 C 181.808594 148.074219 180.753906 143.667969 179.710938 139.460938 C 179.527344 138.726562 179.347656 138.011719 179.167969 137.292969 C 178.992188 136.59375 178.820312 135.898438 178.648438 135.214844 C 177.996094 132.59375 177.382812 130.058594 176.878906 127.59375 C 176.460938 125.554688 176.117188 123.574219 175.777344 121.617188 C 175.488281 119.953125 175.203125 118.308594 174.875 116.636719 C 174.734375 115.917969 174.585938 115.195312 174.433594 114.460938 C 174.285156 113.730469 174.132812 112.996094 173.988281 112.261719 C 173.546875 110.019531 173.160156 107.726562 173.113281 105.617188 C 173.027344 102.132812 173.855469 99.140625 175.121094 97.1875 C 176.460938 95.113281 178.246094 94.289062 180.078125 94.109375 C 180.550781 94.066406 181.046875 94.058594 181.566406 94.121094 C 183.019531 94.292969 184.433594 94.972656 185.785156 96.363281 C 187.585938 98.210938 189.3125 101.34375 190.554688 105.761719 C 191.351562 108.585938 191.957031 111.976562 192.550781 115.296875 C 192.886719 117.175781 193.222656 119.042969 193.589844 120.824219 C 194.164062 123.605469 194.820312 126.1875 195.476562 128.753906 C 195.980469 130.742188 196.488281 132.726562 196.941406 134.753906 C 197.25 136.140625 197.53125 137.546875 197.808594 138.917969 C 198.082031 140.273438 198.347656 141.601562 198.632812 142.882812 C 199.027344 144.652344 199.449219 146.308594 199.953125 147.796875 C 201.117188 151.214844 202.53125 153.246094 203.050781 153.523438 C 203.058594 153.523438 202.996094 153.492188 202.875 153.476562 L 202.949219 153.484375 L 202.949219 153.488281 L 202.875 153.476562 C 202.835938 153.472656 202.785156 153.46875 202.730469 153.472656 C 202.332031 153.492188 202.148438 153.738281 202.152344 153.730469 C 202.480469 153.277344 202.792969 151.308594 202.847656 147.972656 C 202.910156 144.117188 202.648438 139.375 202.378906 134.957031 C 202.113281 130.554688 201.839844 126.535156 201.484375 121.511719 L 201.480469 121.511719 L 201.480469 121.507812 L 201.355469 119.753906 L 201.222656 117.882812 C 200.929688 113.757812 200.625 109.347656 200.441406 105.710938 C 200.203125 100.980469 200.167969 97.519531 200.371094 94.71875 C 200.574219 91.929688 201.023438 89.554688 202.550781 87.429688 C 203.984375 85.425781 206.488281 83.515625 209.1875 83.386719 C 209.527344 83.371094 209.867188 83.382812 210.199219 83.421875 C 212.589844 83.707031 214.640625 85.335938 216.050781 87.472656 C 217.6875 89.941406 218.582031 93.230469 219.09375 97.800781 C 219.539062 101.734375 219.710938 106.761719 219.898438 112.09375 C 219.929688 112.980469 219.960938 113.839844 219.992188 114.742188 C 220.222656 121.09375 220.53125 127.820312 220.847656 133.777344 C 221.160156 139.773438 221.472656 144.859375 222.042969 148.15625 C 222.515625 150.902344 223.085938 151.769531 223.28125 151.902344 C 223.273438 151.898438 223.230469 151.875 223.167969 151.867188 C 223.148438 151.867188 223.136719 151.867188 223.125 151.867188 C 223.109375 151.867188 223.105469 151.867188 223.105469 151.867188 C 223.308594 151.824219 224.527344 151.003906 225.449219 147.675781 C 226.296875 144.632812 226.71875 140.082031 227.179688 135.039062 C 227.230469 134.484375 227.28125 133.921875 227.335938 133.359375 C 227.855469 127.757812 228.472656 121.992188 229.089844 116.242188 C 229.09375 116.199219 229.101562 116.15625 229.109375 116.113281 M 232.152344 116.699219 L 232.171875 116.574219 C 231.554688 122.324219 230.941406 128.070312 230.421875 133.644531 C 230.371094 134.210938 230.320312 134.757812 230.269531 135.320312 C 229.816406 140.246094 229.378906 145.128906 228.4375 148.503906 C 227.507812 151.851562 225.875 154.457031 223.738281 154.902344 C 223.574219 154.9375 223.402344 154.960938 223.230469 154.964844 C 223.089844 154.96875 222.945312 154.964844 222.800781 154.945312 C 222.328125 154.890625 221.902344 154.71875 221.53125 154.464844 C 220.09375 153.480469 219.421875 151.207031 218.988281 148.683594 C 218.378906 145.164062 218.058594 139.875 217.75 133.941406 C 217.433594 127.972656 217.125 121.226562 216.894531 114.855469 C 216.859375 113.964844 216.828125 113.074219 216.800781 112.203125 C 216.609375 106.824219 216.4375 101.933594 216.011719 98.148438 C 215.519531 93.742188 214.695312 91.039062 213.464844 89.183594 C 212.367188 87.523438 211.023438 86.644531 209.835938 86.503906 C 209.667969 86.484375 209.5 86.476562 209.335938 86.484375 C 207.914062 86.550781 206.179688 87.691406 205.070312 89.234375 C 204.050781 90.65625 203.65625 92.324219 203.464844 94.945312 C 203.273438 97.554688 203.300781 100.863281 203.539062 105.554688 C 203.71875 109.152344 204.023438 113.535156 204.316406 117.664062 L 204.449219 119.535156 L 204.574219 121.289062 L 204.574219 121.292969 C 204.933594 126.324219 205.207031 130.351562 205.476562 134.769531 C 205.742188 139.171875 206.011719 144.03125 205.949219 148.019531 C 205.902344 150.949219 205.695312 154.125 204.664062 155.550781 C 204.324219 156.015625 203.746094 156.523438 202.886719 156.570312 C 202.757812 156.574219 202.628906 156.570312 202.511719 156.554688 L 202.4375 156.546875 L 202.507812 156.554688 C 202.15625 156.511719 201.847656 156.394531 201.59375 156.257812 C 199.84375 155.328125 198.128906 152.058594 197.019531 148.792969 C 196.460938 147.152344 196.011719 145.375 195.605469 143.558594 C 195.3125 142.238281 195.039062 140.882812 194.769531 139.53125 C 194.492188 138.152344 194.214844 136.78125 193.914062 135.425781 C 193.472656 133.453125 192.980469 131.515625 192.46875 129.519531 C 191.820312 126.960938 191.144531 124.3125 190.550781 121.449219 C 190.175781 119.625 189.832031 117.714844 189.5 115.84375 C 188.894531 112.476562 188.316406 109.25 187.570312 106.601562 C 186.414062 102.480469 184.878906 99.878906 183.5625 98.527344 C 182.644531 97.582031 181.863281 97.277344 181.199219 97.199219 C 180.9375 97.167969 180.664062 97.167969 180.378906 97.199219 C 179.386719 97.292969 178.496094 97.675781 177.722656 98.871094 C 176.871094 100.191406 176.140625 102.539062 176.210938 105.546875 C 176.253906 107.371094 176.59375 109.441406 177.03125 111.664062 C 177.171875 112.378906 177.320312 113.101562 177.472656 113.835938 C 177.621094 114.5625 177.773438 115.304688 177.917969 116.035156 C 178.253906 117.75 178.546875 119.425781 178.832031 121.089844 C 179.171875 123.050781 179.507812 124.988281 179.917969 126.96875 C 180.410156 129.371094 181.007812 131.851562 181.65625 134.46875 C 181.828125 135.152344 182 135.835938 182.175781 136.539062 C 182.355469 137.257812 182.535156 137.972656 182.71875 138.714844 C 183.761719 142.898438 184.859375 147.484375 185.347656 151.546875 C 185.742188 154.859375 185.878906 158.75 184.464844 160.457031 C 184.253906 160.710938 183.988281 160.949219 183.65625 161.125 C 183.140625 161.40625 182.585938 161.476562 182.070312 161.414062 C 182.035156 161.410156 182 161.40625 181.964844 161.402344 C 179.792969 161.066406 177.554688 158.292969 175.796875 154.980469 C 174.179688 151.9375 172.675781 147.875 171.5 144.542969 C 171.25 143.824219 171.007812 143.132812 170.785156 142.492188 C 170.589844 141.929688 170.40625 141.402344 170.238281 140.921875 C 168.996094 137.398438 168.503906 136.398438 167.03125 133.847656 C 165.449219 131.101562 163.101562 127.261719 161.222656 125.875 C 160.730469 125.507812 160.339844 125.378906 160.042969 125.34375 C 159.402344 125.265625 158.648438 125.601562 157.773438 126.550781 C 156.570312 127.851562 155.75 129.660156 155.695312 131.570312 C 155.636719 133.523438 156.347656 135.675781 158.144531 140.707031 C 158.460938 141.597656 158.804688 142.558594 159.171875 143.582031 C 160.828125 148.21875 162.898438 154.003906 164.46875 158.621094 C 166.390625 164.269531 167.574219 168.175781 169.113281 173.917969 C 169.5625 175.589844 170.039062 177.417969 170.535156 179.320312 C 171.75 183.953125 173.082031 189.035156 174.402344 193.527344 C 176.269531 199.855469 178.113281 204.96875 180.195312 209.363281 C 182.277344 213.757812 184.554688 217.34375 187.835938 220.261719 C 191.136719 223.199219 195.5 225.503906 200.183594 226.527344 C 201.089844 226.726562 202.019531 226.875 202.960938 226.988281 L 202.910156 226.984375 L 202.960938 226.988281 C 206.875 227.453125 210.984375 227.230469 215.140625 226.910156 C 220.320312 226.507812 225.140625 225.980469 229.195312 224.375 C 233.203125 222.789062 236.585938 220.097656 240.277344 216.316406 C 243.96875 212.539062 247.828125 207.816406 250.804688 202.535156 C 252.074219 200.28125 253.191406 197.910156 254.339844 195.476562 C 255.867188 192.230469 257.445312 188.871094 259.445312 185.773438 C 260.703125 183.820312 262.117188 181.992188 263.554688 180.273438 C 264.878906 178.6875 266.238281 177.183594 267.523438 175.757812 C 268.71875 174.433594 269.84375 173.1875 270.847656 171.984375 C 274.203125 167.972656 276 164.71875 276.144531 162.621094 C 276.261719 160.871094 275.152344 159.632812 273.535156 158.792969 C 272.855469 158.4375 272.195312 158.222656 271.492188 158.136719 C 270.597656 158.03125 269.527344 158.128906 268.128906 158.574219 C 265.589844 159.382812 262.1875 161.253906 259.132812 164.289062 C 258.039062 165.375 256.980469 166.617188 255.964844 167.910156 C 254.980469 169.15625 254.050781 170.425781 253.171875 171.628906 C 252.421875 172.660156 251.699219 173.648438 251.035156 174.492188 C 249.285156 176.714844 247.359375 178.75 245.140625 178.484375 C 244.804688 178.445312 244.488281 178.355469 244.1875 178.222656 C 241.851562 177.195312 240.753906 173.828125 240.574219 168.089844 C 240.382812 162.082031 241.191406 152.472656 242.066406 142.929688 C 242.222656 141.222656 242.386719 139.476562 242.542969 137.789062 C 243.273438 129.972656 243.964844 122.539062 244.230469 117.152344 C 244.550781 110.585938 244.222656 107.222656 243.539062 104.855469 C 242.835938 102.425781 241.828125 101.261719 240.96875 100.84375 C 240.71875 100.722656 240.445312 100.648438 240.148438 100.613281 C 239.414062 100.527344 238.558594 100.691406 237.695312 101.019531 C 236.75 101.378906 235.921875 101.808594 235.019531 104.273438 C 234.03125 106.972656 233.113281 111.726562 232.152344 116.699219 Z M 232.152344 116.699219 "
      fill-opacity="1" fill-rule="nonzero" />
  </g>
</svg>